<svg viewBox="0 0 500 500" xmlns="http://www.w3.org/2000/svg">
    <defs></defs>
    <g id="VERSION_1" transform="matrix(6.385696, 0, 0, 6.385696, -372.860851, 42.464883)">
      <path d="M126.59,11.21h-2.21V5.6c0-3.09-2.51-5.6-5.6-5.6h-3.6c-3.09,0-5.6,2.51-5.6,5.6v5.6h-41.1c-5.57,0-10.09,4.52-10.09,10.09V54.91c0,5.57,4.52,10.09,10.09,10.09h58.12c5.57,0,10.09-4.52,10.09-10.09V21.29c0-5.57-4.52-10.09-10.09-10.09Zm-20.77,39.22h-35.12v-8.97h35.12v8.97Zm17.56-16.81h-52.67v-8.97h52.67v8.97Z" style="stroke: rgb(133, 133, 133); paint-order: stroke; fill: rgb(133, 133, 133);"></path>
    </g>
  </svg>